{"title":"Andrew Blake - Blond &amp; Brunettes (2001).mkv","uid":7567056,"size":3920949461,"categoryP":"porn","categoryS":"movies","magnet":"?xt=urn:btih:aa9c1cfc8947eb55e870558a49c0c9f2c1f8de7d&amp;dn=Andrew+Blake+-+Blond+%26amp%3B+Brunettes+%282001%29.mkv&amp;tr=udp%3A%2F%2Ftracker.openbittorrent.com%3A80&amp;tr=udp%3A%2F%2Fopen.demonii.com%3A1337&amp;tr=udp%3A%2F%2Ftracker.coppersurfer.tk%3A6969&amp;tr=udp%3A%2F%2Fexodus.desync.com%3A6969","seeders":0,"leechers":0,"uploader":"3lTigr3","files":1,"time":1345890739,"description":"Andrew Blake's Blond &amp; Brunettes (2001)\n\nDirectly from DVD\n\n* * * Raw File Report for Andrew Blake - Blonds &amp; Brunettes (2001).mkv\n\nGeneral\nFormat                           : Matroska\nFile size                        : 3.65 GiB\nDuration                         : 1h 21mn\nOverall bit rate                 : 6 389 Kbps\nEncoded date                     : UTC 2011-12-02 21:15:34\nWriting application              : MakeMKV v1.6.16 darwin(x86-release)\nWriting library                  : libmakemkv v1.6.16 (1.2.0/1.1.0) darwin(x86-release)\n\nVideo\nID                               : 1\nFormat                           : MPEG Video\nFormat version                   : Version 2\nFormat profile                   : Main@Main\nFormat settings, BVOP            : No\nFormat settings, Matrix          : Default\nCodec ID                         : V_MPEG2\nCodec ID/Info                    : MPEG 1 or 2 Video\nDuration                         : 1h 21mn\nBit rate mode                    : Constant\nBit rate                         : 6 000 Kbps\nWidth                            : 720 pixels\nHeight                           : 576 pixels\nDisplay aspect ratio             : 4:3\nFrame rate                       : 25.000 fps\nStandard                         : PAL\nColor space                      : YUV\nChroma subsampling               : 4:2:0\nBit depth                        : 8 bits\nScan type                        : Interlaced\nScan order                       : Top Field First\nCompression mode                 : Lossy\nBits/(Pixel*Frame)               : 0.579\nStream size                      : 3.36 GiB (92%)\nLanguage                         : English\n\nAudio\nID                               : 2\nFormat                           : AC-3\nFormat/Info                      : Audio Coding 3\nMode extension                   : CM (complete main)\nCodec ID                         : A_AC3\nDuration                         : 1h 21mn\nBit rate mode                    : Constant\nBit rate                         : 384 Kbps\nChannel(s)                       : 2 channels\nChannel positions                : Front: L R\nSampling rate                    : 48.0 KHz\nBit depth                        : 16 bits\nCompression mode                 : Lossy\nStream size                      : 225 MiB (6%)\nTitle                            : 2/0\nLanguage                         : English\n","torrent":{"xt":"urn:btih:aa9c1cfc8947eb55e870558a49c0c9f2c1f8de7d","amp;dn":"Andrew+Blake+-+Blond+%26amp%3B+Brunettes+%282001%29.mkv","amp;tr":["udp%3A%2F%2Ftracker.openbittorrent.com%3A80","udp%3A%2F%2Fopen.demonii.com%3A1337","udp%3A%2F%2Ftracker.coppersurfer.tk%3A6969","udp%3A%2F%2Fexodus.desync.com%3A6969"],"infoHash":"aa9c1cfc8947eb55e870558a49c0c9f2c1f8de7d","infoHashBuffer":{"type":"Buffer","data":[170,156,28,252,137,71,235,85,232,112,85,138,73,192,201,242,193,248,222,125]},"announce":[],"urlList":[]}}